<svg width="16" height="16" viewBox="0 0 16 16" fill="none" xmlns="http://www.w3.org/2000/svg">
<path d="M4.62884 -6.10352e-05C2.08795 -6.10352e-05 0 2.08503 0 4.62878V11.113C0 13.6539 2.08509 15.7419 4.62884 15.7419H11.1131C13.654 15.7419 15.7419 13.6568 15.7419 11.113V4.6295C15.7419 2.08789 13.6568 -6.10352e-05 11.1131 -6.10352e-05H4.62884ZM4.62884 1.43102H11.1131C11.5332 1.43046 11.9493 1.51279 12.3375 1.67329C12.7257 1.83379 13.0785 2.06931 13.3755 2.36637C13.6726 2.66342 13.9081 3.01616 14.0686 3.40439C14.2291 3.79261 14.3114 4.20869 14.3109 4.62878V11.113C14.3114 11.5331 14.2291 11.9492 14.0686 12.3374C13.9081 12.7257 13.6726 13.0784 13.3755 13.3754C13.0785 13.6725 12.7257 13.908 12.3375 14.0685C11.9493 14.229 11.5332 14.3114 11.1131 14.3108H4.62956C4.20941 14.3114 3.79325 14.2292 3.40494 14.0687C3.01663 13.9083 2.66381 13.6728 2.36668 13.3757C2.06955 13.0786 1.83396 12.7259 1.67342 12.3376C1.51287 11.9493 1.43052 11.5332 1.43109 11.113V4.6295C1.43043 4.20934 1.51268 3.79319 1.67314 3.40488C1.8336 3.01657 2.06911 2.66375 2.36617 2.36662C2.66323 2.06949 3.01601 1.8339 3.40428 1.67336C3.79255 1.51281 4.20869 1.43046 4.62884 1.43102ZM12.097 2.99663C12.0117 2.99625 11.9273 3.01276 11.8484 3.04521C11.7696 3.07765 11.698 3.12539 11.6377 3.18566C11.5774 3.24594 11.5297 3.31755 11.4973 3.39638C11.4648 3.4752 11.4483 3.55967 11.4487 3.64491C11.4487 4.00555 11.7363 4.29319 12.097 4.29319C12.1823 4.29367 12.2668 4.27723 12.3457 4.24483C12.4246 4.21242 12.4963 4.1647 12.5567 4.10442C12.617 4.04413 12.6648 3.97248 12.6973 3.89361C12.7298 3.81474 12.7463 3.73021 12.746 3.64491C12.7463 3.55961 12.7298 3.47508 12.6973 3.39621C12.6648 3.31734 12.617 3.24569 12.5567 3.18541C12.4963 3.12512 12.4246 3.0774 12.3457 3.045C12.2668 3.0126 12.1823 2.99616 12.097 2.99663ZM7.87097 3.57765C5.50968 3.57765 3.57771 5.50962 3.57771 7.87091C3.57771 10.2322 5.50968 12.1642 7.87097 12.1642C10.2323 12.1642 12.1642 10.2322 12.1642 7.87091C12.1642 5.50962 10.2323 3.57765 7.87097 3.57765ZM7.87097 5.00874C9.46162 5.00874 10.7331 6.28026 10.7331 7.87091C10.7331 9.46156 9.46162 10.7331 7.87097 10.7331C6.28032 10.7331 5.0088 9.46156 5.0088 7.87091C5.0088 6.28026 6.28032 5.00874 7.87097 5.00874Z" fill="white"/>
</svg>
