<svg width="62" height="62" viewBox="0 0 62 62" fill="none" xmlns="http://www.w3.org/2000/svg">
<circle cx="31" cy="31" r="29" transform="matrix(-1 0 0 1 62 0)" stroke="#FF6958" stroke-width="4"/>
<path d="M41.4142 29.5858C42.1953 30.3668 42.1953 31.6332 41.4142 32.4142L28.6863 45.1421C27.9052 45.9232 26.6389 45.9232 25.8579 45.1421C25.0768 44.3611 25.0768 43.0947 25.8579 42.3137L37.1716 31L25.8579 19.6863C25.0768 18.9052 25.0768 17.6389 25.8579 16.8579C26.6389 16.0768 27.9053 16.0768 28.6863 16.8579L41.4142 29.5858ZM38 29L40 29L40 33L38 33L38 29Z" fill="#FF6958"/>
</svg>
