<svg width="18" height="14" viewBox="0 0 18 14" fill="none" xmlns="http://www.w3.org/2000/svg">
<path d="M17.173 1.6561C16.53 1.94075 15.8479 2.12721 15.1495 2.20921C15.8847 1.76892 16.435 1.0765 16.6979 0.260788C16.0064 0.670605 15.2503 0.959984 14.4618 1.11658C13.9788 0.600207 13.3516 0.241108 12.6618 0.0859739C11.9719 -0.0691603 11.2514 -0.0131523 10.5938 0.246715C9.93623 0.506582 9.37205 0.958285 8.97463 1.54309C8.57721 2.12789 8.36494 2.81874 8.36541 3.52581C8.36541 3.80272 8.39618 4.07105 8.45843 4.32793C7.05705 4.25895 5.68593 3.89546 4.43442 3.26114C3.18292 2.62682 2.07912 1.73591 1.19496 0.646465C0.880816 1.1842 0.716046 1.7961 0.717689 2.41886C0.717689 3.64029 1.33806 4.71933 2.28544 5.35116C1.72586 5.3334 1.17868 5.18176 0.689783 4.90895V4.95403C0.689299 5.76773 0.970583 6.55649 1.48583 7.18627C2.00108 7.81604 2.7185 8.24798 3.51618 8.40867C2.99745 8.55093 2.45297 8.57198 1.92481 8.47021C2.14978 9.17023 2.58779 9.78249 3.17764 10.2215C3.76749 10.6605 4.47974 10.9043 5.21487 10.9188C4.48405 11.4924 3.64727 11.9163 2.75244 12.1662C1.85761 12.416 0.922282 12.487 0 12.3749C1.61035 13.4112 3.48522 13.9615 5.4002 13.9598C11.8816 13.9598 15.4264 8.59042 15.4264 3.93367C15.4264 3.7834 15.4207 3.62885 15.4149 3.47787C16.1037 2.97917 16.6989 2.36196 17.173 1.6561Z" fill="white"/>
</svg>
