<svg width="112" height="112" viewBox="0 0 112 112" fill="none" xmlns="http://www.w3.org/2000/svg">
<g clip-path="url(#clip0_339_52)">
<path fill-rule="evenodd" clip-rule="evenodd" d="M56 0C86.9288 0 112 25.7036 112 57.4164C112 82.7788 95.9728 104.294 73.7352 111.893C70.896 112.459 69.888 110.666 69.888 109.137C69.888 107.244 69.9552 101.062 69.9552 93.3789C69.9552 88.0253 68.1632 84.5312 66.1528 82.7504C78.624 81.328 91.728 76.4723 91.728 54.4195C91.728 48.1475 89.5552 43.0294 85.96 39.0086C86.5424 37.5582 88.4632 31.7181 85.4112 23.8109C85.4112 23.8109 80.7184 22.2724 70.028 29.698C65.5536 28.4268 60.76 27.7872 56 27.7648C51.24 27.7872 46.452 28.4268 41.9832 29.698C31.2816 22.2724 26.5776 23.8109 26.5776 23.8109C23.5368 31.7181 25.4576 37.5582 26.0344 39.0086C22.456 43.0294 20.2664 48.1475 20.2664 54.4195C20.2664 76.4163 33.3424 81.3465 45.78 82.7969C44.1784 84.2305 42.728 86.7595 42.224 90.4723C39.032 91.9395 30.9232 94.4787 25.928 85.7035C25.928 85.7035 22.9656 80.1868 17.3432 79.7836C17.3432 79.7836 11.8832 79.7111 16.9624 83.2727C16.9624 83.2727 20.6304 85.0367 23.1784 91.6727C23.1784 91.6727 26.4656 101.92 42.0448 98.4484C42.0728 103.248 42.1232 107.771 42.1232 109.137C42.1232 110.655 41.0928 112.431 38.2984 111.899C16.044 104.311 0 82.7844 0 57.4164C0 25.7036 25.0768 0 56 0Z" fill="black"/>
</g>
<defs>
<clipPath id="clip0_339_52">
<rect width="112" height="112" fill="white"/>
</clipPath>
</defs>
</svg>
