<svg width="112" height="112" viewBox="0 0 112 112" fill="none" xmlns="http://www.w3.org/2000/svg">
<path d="M105.091 52.9865C104.804 52.9655 104.471 52.9515 104.135 52.9515C102.441 52.9515 100.821 53.2665 99.33 53.8405L99.421 53.809C98.9835 53.984 98.2835 53.984 98.224 54.5405C98.4655 54.7715 98.5005 55.153 98.7035 55.475C99.113 56.168 99.617 56.756 100.205 57.246L100.215 57.2565C100.828 57.736 101.44 58.2015 102.084 58.611C103.222 59.311 104.513 59.7275 105.626 60.431C106.26 60.8405 106.907 61.362 107.551 61.7995C107.87 62.0165 108.076 62.412 108.486 62.552V62.4645C108.286 62.202 108.223 61.8205 108.027 61.53C107.733 61.236 107.443 60.9735 107.152 60.6865C106.284 59.549 105.28 58.576 104.153 57.764L104.111 57.736C103.176 57.099 101.129 56.2065 100.744 55.132L100.688 55.069C101.451 54.9605 102.13 54.7995 102.784 54.5825L102.7 54.607C103.694 54.3445 104.604 54.4005 105.63 54.145C106.092 54.026 106.561 53.8825 107.03 53.7355V53.473C106.505 52.948 106.113 52.234 105.57 51.744C104.139 50.484 102.56 49.301 100.898 48.237L100.74 48.1425C99.8235 47.558 98.658 47.18 97.692 46.683C97.342 46.508 96.7575 46.4205 96.5545 46.1265C96.0995 45.479 95.697 44.737 95.3785 43.953L95.3505 43.876C94.4918 42.21 93.6938 40.5148 92.9565 38.7905C92.4525 37.45 91.952 36.351 91.3885 35.287L91.469 35.4515C88.718 30.835 84.8855 27.125 80.311 24.5945L80.1605 24.5175C79.079 23.982 77.8225 23.5655 76.503 23.331L76.4155 23.317C75.684 23.282 74.956 23.2295 74.228 23.198C73.717 22.869 73.276 22.533 72.863 22.162L72.8735 22.1725C71.211 21.1225 66.9095 18.8475 65.6845 21.8575C64.897 23.7545 66.8535 25.627 67.529 26.5895C68.068 27.23 68.558 27.9475 68.9815 28.707L69.0165 28.777C69.223 29.2845 69.279 29.806 69.4855 30.3345C69.993 31.9165 70.5075 33.215 71.092 34.4715L71.001 34.2545C71.3475 34.951 71.708 35.5425 72.1105 36.1025L72.0825 36.0605C72.317 36.379 72.7195 36.5295 72.814 37.0545C72.513 37.688 72.2785 38.423 72.149 39.1895L72.142 39.2385C71.764 40.4005 71.5435 41.741 71.5435 43.1305C71.5435 45.304 72.079 47.3515 73.024 49.1505L72.989 49.0805C73.458 49.805 74.571 51.415 76.062 50.799C77.3745 50.274 77.084 48.6115 77.462 47.1485C77.5495 46.7985 77.4935 46.5675 77.672 46.3295V46.396C78.0815 47.2185 78.4945 48.0025 78.869 48.825C79.926 50.3475 81.1825 51.6425 82.6175 52.71L82.663 52.7415C83.363 53.2665 83.9195 54.1765 84.7945 54.4985V54.411H84.728C84.5285 54.194 84.308 54.0015 84.0665 53.837L84.0525 53.83C83.51 53.298 83.006 52.724 82.551 52.1185L82.523 52.08C81.382 50.54 80.297 48.797 79.3555 46.9665L79.254 46.753C78.7745 45.836 78.372 44.8455 77.987 43.939C77.812 43.589 77.812 43.064 77.518 42.889C77 43.47 76.5345 44.1175 76.146 44.814L76.118 44.87C75.67 46.1755 75.376 47.684 75.299 49.2485V49.287C75.18 49.3185 75.2395 49.287 75.18 49.35C74.2455 49.1225 73.9235 48.153 73.5735 47.3375C73.0975 46.0565 72.821 44.5725 72.821 43.029C72.821 41.783 72.9995 40.579 73.3355 39.4415L73.3145 39.5325C73.521 38.92 74.396 36.988 74.046 36.4C73.864 35.8435 73.2865 35.525 72.9645 35.0735C72.583 34.5345 72.233 33.922 71.9425 33.2745L71.9145 33.2045C71.2145 31.57 70.8645 29.757 70.105 28.1225C69.6465 27.2685 69.1635 26.5335 68.621 25.8475L68.6455 25.879C68.068 25.2105 67.536 24.465 67.074 23.674L67.0355 23.604C66.892 23.2855 66.6855 22.757 66.9165 22.407C66.9585 22.204 67.1195 22.0465 67.326 22.015C67.711 21.7 68.796 22.1095 69.174 22.2845C70.2835 22.7045 71.239 23.198 72.1245 23.779L72.0685 23.744C72.478 24.031 72.9225 24.5875 73.4475 24.731H74.06C74.9945 24.9375 76.0515 24.794 76.9265 25.0495C78.533 25.592 79.9225 26.271 81.207 27.104L81.1335 27.0585C84.9975 29.554 88.0915 32.928 90.1845 36.9145L90.2545 37.058C90.6045 37.73 90.7585 38.3495 91.077 39.0495C91.6895 40.4915 92.4455 41.951 93.0685 43.344C93.66 44.842 94.36 46.137 95.193 47.3305L95.151 47.2675C95.5885 47.88 97.3455 48.1985 98.133 48.517C98.9625 48.8075 99.6275 49.084 100.271 49.3955L100.142 49.3395C101.146 49.952 102.126 50.652 103.071 51.324C103.551 51.6565 105.01 52.388 105.098 52.976L105.091 52.9865ZM64.057 78.582C64.057 78.6345 64.0605 78.694 64.0605 78.7535C64.0605 80.7065 63.189 82.453 61.81 83.629L61.7995 83.636C60.2875 84.868 58.338 85.617 56.2135 85.617C56.049 85.617 55.8845 85.6135 55.7235 85.603H55.7445C53.158 85.568 50.778 84.728 48.8285 83.3245L48.8635 83.349L49.8995 81.2665C51.401 82.1065 53.186 82.628 55.083 82.7015H55.104C55.1985 82.7085 55.307 82.712 55.419 82.712C56.581 82.712 57.6625 82.348 58.548 81.7285L58.5305 81.739C59.332 81.13 59.843 80.178 59.843 79.107C59.843 79.086 59.843 79.0685 59.843 79.0475V79.051C59.843 77.609 58.8385 76.384 57.008 75.355C55.3105 74.424 51.9225 72.4815 51.9225 72.4815C50.2495 71.4455 49.154 69.622 49.154 67.543C49.154 67.4695 49.154 67.396 49.1575 67.3225V67.333C49.154 67.2665 49.154 67.1895 49.154 67.1125C49.154 65.31 49.9485 63.693 51.205 62.594L51.212 62.587C52.549 61.453 54.2955 60.7635 56.203 60.7635C56.3255 60.7635 56.4445 60.767 56.5635 60.7705H56.546C56.5775 60.7705 56.616 60.7705 56.6545 60.7705C58.891 60.7705 60.9735 61.439 62.7095 62.5905L62.6675 62.566L61.7365 64.6485C60.368 64.0325 58.772 63.6615 57.092 63.644H57.085C57.001 63.637 56.9065 63.6335 56.8085 63.6335C55.8285 63.6335 54.9255 63.9765 54.2185 64.5505L54.2255 64.5435C53.564 65.093 53.144 65.9155 53.1405 66.836C53.1405 68.271 54.1625 69.503 56.0525 70.553C57.771 71.4945 61.243 73.4825 61.243 73.4825C62.951 74.487 64.0815 76.314 64.0815 78.407C64.0815 78.47 64.0815 78.5365 64.078 78.5995V78.589L64.057 78.582ZM71.309 80.4405C70.3535 78.533 69.797 76.286 69.797 73.9095C69.797 73.535 69.811 73.164 69.839 72.8L69.8355 72.849C69.8355 66.7567 71.687 63.7093 75.39 63.707C75.481 63.7 75.5895 63.6965 75.7015 63.6965C77.364 63.6965 78.8235 64.5645 79.653 65.8735L79.6635 65.891C80.612 67.788 81.1685 70.028 81.1685 72.394C81.1685 72.758 81.1545 73.1185 81.13 73.4755L81.1335 73.4265C81.1335 79.5678 79.282 82.6408 75.579 82.6455C75.4845 82.6525 75.376 82.656 75.2675 82.656C73.605 82.656 72.142 81.788 71.3125 80.479L71.302 80.4615L71.309 80.4405ZM85.708 85.8725L81.263 83.685C81.669 83.3455 82.033 82.9885 82.369 82.6035L82.3795 82.593C84.175 80.171 85.253 77.1225 85.253 73.8255C85.253 73.444 85.239 73.066 85.211 72.6915L85.2145 72.7405C85.2145 64.7372 82.0726 60.7332 75.789 60.7285C75.649 60.7215 75.4845 60.718 75.32 60.718C72.6355 60.718 70.224 61.8975 68.5825 63.77L68.5755 63.7805C66.787 66.2025 65.7125 69.2475 65.7125 72.5445C65.7125 72.9155 65.7265 73.283 65.7545 73.647L65.751 73.598C65.7195 73.9515 65.702 74.3645 65.702 74.781C65.702 77.84 66.661 80.675 68.292 83.0025L68.2605 82.957C69.832 84.63 72.0615 85.673 74.529 85.673C74.76 85.673 74.9875 85.6625 75.2115 85.645L75.18 85.6485C75.2115 85.6485 75.2535 85.6485 75.292 85.6485C76.3805 85.6485 77.434 85.491 78.4315 85.2005L78.3545 85.2215L84.1505 88.599L85.7255 85.8795L85.708 85.8725ZM100.226 85.281H88.7215V61.096H92.5925V82.3095H100.226V85.281ZM46.3225 67.438C45.318 74.732 43.0185 81.3155 39.655 87.213L39.795 86.9435C38.4475 89.537 35.8995 91.343 32.907 91.6335L32.872 91.637C31.9655 91.588 31.122 91.371 30.3555 91.0175L30.3975 91.035V88.8755C30.877 88.949 31.43 88.991 31.9935 88.991C32.025 88.991 32.0565 88.991 32.0915 88.991C32.1475 88.9945 32.207 88.9945 32.27 88.9945C33.2815 88.9945 34.209 88.627 34.923 88.0145L34.916 88.018C35.686 87.3845 36.1795 86.4395 36.2075 85.3755C36.022 83.8425 35.6685 82.4425 35.161 81.123L35.203 81.242L30.7685 67.438H34.748L37.9295 77.7595C38.4965 79.2155 38.8255 80.9025 38.8255 82.663C38.8255 82.6665 38.8255 82.67 38.8255 82.67C40.5125 78.253 41.7935 73.101 42.4445 67.7565L42.476 67.4345L46.3225 67.438ZM28.7525 85.281H24.6995C24.5851 78.8387 24.192 72.4092 23.52 65.9925H23.485L17.318 85.281H14.2345L8.10946 65.9925H8.06746C7.58912 72.4115 7.30446 78.841 7.21346 85.281H3.51746C3.75779 76.6827 4.35512 68.6198 5.30946 61.0925H10.339L16.177 78.869H16.212L22.1025 61.0925H26.8905C27.9498 69.9055 28.574 77.9683 28.763 85.281H28.7525ZM75.2675 27.5765C75.2605 27.5765 75.25 27.5765 75.2395 27.5765C74.823 27.5765 74.4205 27.629 74.0355 27.727L74.0705 27.72V27.776H74.13C74.431 28.224 74.739 28.6125 75.0715 28.9765L75.0645 28.9695C75.299 29.4385 75.502 29.904 75.7365 30.3695L75.796 30.303C76.1775 30.002 76.419 29.54 76.419 29.022C76.419 28.959 76.4155 28.8995 76.4085 28.8365V28.8435C76.2335 28.637 76.209 28.434 76.0585 28.231C75.8835 27.937 75.509 27.7935 75.271 27.5625L75.2675 27.5765Z" fill="black"/>
</svg>
